<?xml version="1.0" encoding="iso-8859-1"?>
<!-- Generator: Adobe Illustrator 19.0.0, SVG Export Plug-In . SVG Version: 6.00 Build 0)  -->
<svg version="1.1" id="Capa_1" xmlns="http://www.w3.org/2000/svg" xmlns:xlink="http://www.w3.org/1999/xlink" x="0px" y="0px"
	 viewBox="0 0 512 512" style="enable-background:new 0 0 512 512;" xml:space="preserve">
<g>
	<polygon style="fill:#BDC3C7;" points="207.978,220.69 240.022,194.745 185.291,133.826 150.069,150.069 190.146,194.745 
		158.897,219.71 159.779,220.69 	"/>
	<path style="fill:#41767F;" d="M344.276,353.103c24.377,0,44.138-19.761,44.138-44.138s-19.761-44.138-44.138-44.138H44.138
		C19.761,264.828,0,284.589,0,308.966s19.761,44.138,44.138,44.138H344.276z"/>
	<path style="fill:#D1D4D1;" d="M344.276,379.586V238.345c0-14.626-11.857-26.483-26.483-26.483H70.621
		c-14.626,0-26.483,11.857-26.483,26.483v141.241c0,14.626,11.857,26.483,26.483,26.483h88.276c-9.751,0-17.655,7.904-17.655,17.655
		c0,9.751,7.904,17.655,17.655,17.655c-9.751,0-17.655,7.905-17.655,17.655s7.904,17.655,17.655,17.655H70.621
		c-7.027-0.009-13.768,2.778-18.736,7.746c-4.969,4.969-7.756,11.71-7.746,18.737l0,8.828h300.138v-8.828
		c0.009-7.027-2.778-13.768-7.746-18.737c-4.969-4.969-11.71-7.756-18.737-7.746h-88.276c9.751,0,17.655-7.905,17.655-17.655
		s-7.904-17.655-17.655-17.655c9.751,0,17.655-7.904,17.655-17.655c0-9.751-7.904-17.655-17.655-17.655h88.276
		C332.419,406.069,344.276,394.212,344.276,379.586z"/>
	<path style="fill:#BDC3C7;" d="M229.517,406.069c9.751,0,17.655,7.904,17.655,17.655c0,9.751-7.904,17.655-17.655,17.655
		c9.751,0,17.655,7.905,17.655,17.655s-7.904,17.655-17.655,17.655h-70.621c-9.751,0-17.655-7.905-17.655-17.655
		s7.904-17.655,17.655-17.655c-9.751,0-17.655-7.904-17.655-17.655c0-9.751,7.904-17.655,17.655-17.655H229.517z"/>
	<path style="fill:#D1D4D1;" d="M344.276,512v-8.828c0.009-7.026-2.778-13.768-7.746-18.736c-4.969-4.969-11.71-7.756-18.737-7.746
		H70.621c-7.027-0.009-13.768,2.778-18.736,7.746c-4.969,4.969-7.756,11.71-7.746,18.736l0,8.828H344.276z"/>
	<g>
		<path style="fill:#46B29D;" d="M114.759,247.172h17.655c9.751,0,17.655,7.904,17.655,17.655v17.655
			c0,9.751-7.904,17.655-17.655,17.655h-17.655c-9.751,0-17.655-7.905-17.655-17.655v-17.655
			C97.103,255.077,105.008,247.172,114.759,247.172z"/>
		<path style="fill:#46B29D;" d="M256,247.172h17.655c9.751,0,17.655,7.904,17.655,17.655v17.655
			c0,9.751-7.904,17.655-17.655,17.655H256c-9.751,0-17.655-7.905-17.655-17.655v-17.655
			C238.345,255.077,246.249,247.172,256,247.172z"/>
		<circle style="fill:#46B29D;" cx="158.897" cy="132.414" r="26.483"/>
		<path style="fill:#46B29D;" d="M512,8.828v158.879c0,4.875-3.952,8.828-8.828,8.828h-35.31l-37.076,58.262
			c-2.28,3.04-6.249,4.28-9.854,3.078c-3.605-1.202-6.036-4.575-6.036-8.375v-52.966H291.31c-4.875,0-8.828-3.952-8.828-8.828V8.828
			c0-4.875,3.952-8.828,8.828-8.828h211.862C508.048,0,512,3.952,512,8.828z"/>
	</g>
	<g>
		<path style="fill:#E6E7E8;" d="M406.069,61.793V44.138c-0.01-9.747-7.909-17.645-17.655-17.655h-17.655
			c-9.747,0.01-17.645,7.909-17.655,17.655v17.655c0.01,9.747,7.909,17.645,17.655,17.655h17.655
			C398.16,79.439,406.059,71.54,406.069,61.793z M370.759,44.138h17.655l0.013,17.655h-17.668V44.138z"/>
		<path style="fill:#E6E7E8;" d="M423.724,97.103h-17.655c-9.747,0.01-17.645,7.909-17.655,17.655v17.655
			c0.01,9.747,7.909,17.645,17.655,17.655h17.655c9.747-0.01,17.645-7.909,17.655-17.655v-17.655
			C441.37,105.012,433.471,97.113,423.724,97.103z M406.069,132.414v-17.655h17.655l0.013,17.655H406.069z"/>
		<path style="fill:#E6E7E8;" d="M326.621,26.483c-4.875,0-8.828,3.952-8.828,8.828v35.31c0,4.875,3.952,8.828,8.828,8.828
			s8.828-3.952,8.828-8.828V35.31C335.448,30.435,331.496,26.483,326.621,26.483z"/>
		<path style="fill:#E6E7E8;" d="M432.552,26.483c-4.875,0-8.828,3.952-8.828,8.828v35.31c0,4.875,3.952,8.828,8.828,8.828
			s8.828-3.952,8.828-8.828V35.31C441.379,30.435,437.427,26.483,432.552,26.483z"/>
		<path style="fill:#E6E7E8;" d="M467.862,26.483c-4.875,0-8.828,3.952-8.828,8.828v35.31c0,4.875,3.952,8.828,8.828,8.828
			s8.828-3.952,8.828-8.828V35.31C476.69,30.435,472.737,26.483,467.862,26.483z"/>
		<path style="fill:#E6E7E8;" d="M467.862,97.103c-4.875,0-8.828,3.952-8.828,8.828v35.31c0,4.875,3.952,8.828,8.828,8.828
			s8.828-3.952,8.828-8.828v-35.31C476.69,101.056,472.737,97.103,467.862,97.103z"/>
		<path style="fill:#E6E7E8;" d="M361.931,97.103c-4.875,0-8.828,3.952-8.828,8.828v35.31c0,4.875,3.952,8.828,8.828,8.828
			s8.828-3.952,8.828-8.828v-35.31C370.759,101.056,366.806,97.103,361.931,97.103z"/>
		<path style="fill:#E6E7E8;" d="M326.621,97.103c-4.875,0-8.828,3.952-8.828,8.828v35.31c0,4.875,3.952,8.828,8.828,8.828
			s8.828-3.952,8.828-8.828v-35.31C335.448,101.056,331.496,97.103,326.621,97.103z"/>
	</g>
	<rect x="97.103" y="370.759" style="fill:#67B9CC;" width="194.207" height="35.31"/>
	<path style="fill:#41767F;" d="M291.31,353.103v17.655H97.103v-17.655c0.028-9.739,7.916-17.627,17.655-17.655h158.897
		C283.394,335.477,291.282,343.365,291.31,353.103z"/>
</g>
<g>
</g>
<g>
</g>
<g>
</g>
<g>
</g>
<g>
</g>
<g>
</g>
<g>
</g>
<g>
</g>
<g>
</g>
<g>
</g>
<g>
</g>
<g>
</g>
<g>
</g>
<g>
</g>
<g>
</g>
</svg>
