<svg height="512.01964pt" viewBox="0 0 512.01964 512.01964" width="512.01964pt" xmlns="http://www.w3.org/2000/svg"><path d="m512.019531 370.777344h-189.882812c37.253906-.265625 141.683593-7.503906 163.398437-79.710938l1.414063-.441406zm0 0" fill="#3d324c"/><path d="m512.019531 370.777344v132.414062c0 4.875-3.953125 8.828125-8.828125 8.828125h-494.34375c-4.875 0-8.8281248-3.953125-8.8281248-8.828125v-132.414062l76.3593748-244.433594 61.878906-38.046875h278.953126c3.875-.023437 7.3125 2.480469 8.476562 6.179687l61.261719 196.148438-1.414063.441406c-43.078125 34.515625-119.875-15.183594-123.496094-17.566406 17.476563 35.308594-53.054687 97.011719-53.054687 97.011719s4.148437.265625 11.210937.265625zm0 0" fill="#b49aca"/><path d="m512.019531 370.777344v132.414062c0 4.875-3.953125 8.828125-8.828125 8.828125h-494.34375c-4.875 0-8.8281248-3.953125-8.8281248-8.828125v-132.414062zm0 0" fill="#7d6599"/><path d="m485.535156 291.066406c-21.714844 72.207032-126.144531 79.445313-163.398437 79.710938h-1.941407c-7.0625 0-11.210937-.265625-11.210937-.265625s70.53125-61.703125 53.054687-97.011719c3.621094 2.382812 80.417969 52.082031 123.496094 17.566406zm0 0" fill="#7d6599"/><g fill="#3d324c"><path d="m97.125 406.089844c0 4.875-3.953125 8.828125-8.828125 8.828125h-88.2773438v-17.65625h88.2773438c4.875 0 8.828125 3.953125 8.828125 8.828125zm0 0"/><path d="m512.019531 397.261719v17.65625h-344.277343c-4.875 0-8.824219-3.953125-8.824219-8.828125s3.949219-8.828125 8.824219-8.828125zm0 0"/><path d="m97.125 476.710938c0 4.875-3.953125 8.824218-8.828125 8.824218h-88.2773438v-17.652344h88.2773438c4.875 0 8.828125 3.949219 8.828125 8.828126zm0 0"/><path d="m512.019531 467.882812v17.652344h-344.277343c-4.875 0-8.824219-3.949218-8.824219-8.824218 0-4.878907 3.949219-8.828126 8.824219-8.828126zm0 0"/><path d="m512.019531 432.570312v17.65625h-88.277343c-4.875 0-8.824219-3.953124-8.824219-8.828124s3.949219-8.828126 8.824219-8.828126zm0 0"/><path d="m353.125 441.398438c0 4.875-3.953125 8.828124-8.828125 8.828124h-344.2773438v-17.65625h344.2773438c4.875 0 8.828125 3.953126 8.828125 8.828126zm0 0"/></g><path d="m255.753906 266.964844-58.171875-19.417969 49.964844-49.964844 19.417969 58.171875c1.042968 3.183594.203125 6.679688-2.164063 9.046875-2.367187 2.367188-5.863281 3.207031-9.046875 2.164063zm0 0" fill="#fac176"/><path d="m247.546875 197.582031-18.714844 18.714844v.085937l-12.449219 12.449219h-.085937l-18.714844 18.714844-137.269531-137.269531 18.800781-18.714844 12.449219-12.449219 18.714844-18.800781zm0 0" fill="#e64c3c"/><path d="m35.335938 85.292969 49.960937-49.960938 24.980469 24.980469-49.960938 49.960938zm0 0" fill="#bdc3c7"/><path d="m85.292969 35.328125-49.964844 49.964844-24.980469-24.980469c-13.796875-13.796875-13.796875-36.167969 0-49.964844s36.167969-13.796875 49.964844 0zm0 0" fill="#fb7b76"/><path d="m122.722656 122.722656c-1.679687 1.632813-3.925781 2.550782-6.265625 2.558594-2.316406-.007812-4.535156-.925781-6.179687-2.558594l-31.164063-31.160156 12.449219-12.449219 31.160156 31.164063c3.421875 3.441406 3.421875 9.003906 0 12.445312zm0 0" fill="#c03a2b"/><path d="m228.832031 216.296875v.085937l-12.449219 12.449219h-.085937l-81.125-81.125c-3.464844-3.464843-3.464844-9.074219 0-12.535156 3.460937-3.464844 9.070313-3.464844 12.535156 0zm0 0" fill="#c03a2b"/></svg>